<svg width="500" height="500" viewBox="0 0 500 500" fill="none" xmlns="http://www.w3.org/2000/svg">
<path d="M35.5352 249.992C35.5352 334.886 84.8672 408.243 156.402 443.011L54.1026 162.711C41.8391 190.174 35.512 219.916 35.5352 249.992V249.992ZM394.77 239.17C394.77 212.665 385.25 194.309 377.084 180.022C366.213 162.356 356.028 147.396 356.028 129.73C356.028 110.015 370.976 91.6639 392.036 91.6639C392.987 91.6639 393.889 91.7823 394.819 91.8353C356.66 56.8789 305.827 35.5361 249.994 35.5361C175.072 35.5361 109.156 73.9776 70.8091 132.203C75.8406 132.354 80.5865 132.456 84.6101 132.456C107.042 132.456 141.765 129.734 141.765 129.734C153.326 129.053 154.689 146.033 143.144 147.4C143.144 147.4 131.522 148.767 118.594 149.444L196.692 381.746L243.628 240.986L210.211 149.44C198.663 148.763 187.722 147.396 187.722 147.396C176.165 146.718 177.52 129.048 189.077 129.73C189.077 129.73 224.494 132.452 245.566 132.452C267.994 132.452 302.721 129.73 302.721 129.73C314.29 129.048 315.649 146.029 304.096 147.396C304.096 147.396 292.454 148.763 279.551 149.44L357.052 379.983L378.439 308.499C387.715 278.835 394.77 257.529 394.77 239.17V239.17Z" fill="#232A46"/>
<path d="M253.757 268.751L189.412 455.727C209.084 461.525 229.486 464.468 249.995 464.468C274.969 464.468 298.919 460.146 321.212 452.311C320.614 451.375 320.103 450.386 319.685 449.357L253.757 268.751ZM438.174 147.098C439.096 153.929 439.618 161.266 439.618 169.15C439.618 190.914 435.554 215.378 423.312 245.968L357.804 435.372C421.561 398.191 464.445 329.115 464.445 249.992C464.503 214.027 455.465 178.632 438.174 147.098V147.098Z" fill="#232A46"/>
<path d="M249.994 0C112.151 0 0 112.145 0 249.992C0 387.855 112.147 500 249.994 500C387.833 500 500 387.859 500 249.992C499.996 112.145 387.833 0 249.994 0ZM249.994 488.537C118.472 488.537 11.4628 381.525 11.4628 249.992C11.4628 118.471 118.468 11.4671 249.994 11.4671C381.512 11.4671 488.513 118.471 488.513 249.992C488.513 381.525 381.508 488.537 249.994 488.537Z" fill="#232A46"/>
<path d="M435.587 267.803V270.782C434.097 274.804 430.224 277.634 425.905 277.485C424.416 277.485 423.075 278.081 421.884 278.825C418.16 281.506 413.692 282.698 409.074 282.251C406.84 281.953 404.755 281.208 402.819 280.166C400.584 278.974 398.946 280.017 399.393 282.4C400.733 293.72 400.138 305.189 397.903 316.36C397.606 318.148 397.903 319.935 398.797 321.574C402.074 325.893 403.116 331.404 401.627 336.617C400.138 344.959 402.372 353.598 407.734 360.151C409.968 363.279 412.053 366.407 413.989 369.684C416.224 373.855 416.67 378.621 415.479 383.238C414.287 385.473 412.202 387.26 409.819 388.005C408.925 388.005 408.627 387.409 408.032 386.813C406.691 385.473 405.946 385.622 405.351 387.409C404.457 390.686 403.265 391.729 399.84 392.026C395.073 392.175 394.18 391.58 393.137 386.813C392.541 383.536 392.392 380.259 392.392 376.834C392.243 369.088 391.052 361.343 388.818 353.895C386.584 347.193 384.647 340.341 383.158 333.489C382.711 331.851 382.115 330.213 381.073 328.872C379.434 326.489 378.094 324.106 377.051 321.425C376.604 320.233 376.008 319.19 375.115 318.148C368.561 310.7 363.05 302.359 358.433 293.571C355.901 287.911 354.56 281.804 354.262 275.548C354.262 274.208 354.113 272.718 354.113 271.229C353.22 271.676 353.22 272.569 352.922 273.165C351.73 278.229 351.284 283.592 351.581 288.805C351.581 290.89 351.73 292.826 352.028 294.912C352.028 296.699 351.433 298.338 350.241 299.678C348.751 301.614 346.815 302.955 344.581 303.849C340.41 305.785 336.538 308.317 332.963 311.147L326.708 315.765C324.175 317.552 323.431 320.978 325.069 323.51C325.218 323.659 325.367 323.957 325.516 324.106C326.41 325.446 327.601 326.34 328.495 327.68C330.133 329.617 331.325 331.851 331.772 334.383C332.07 337.511 334.602 340.043 337.73 340.043C343.687 340.639 349.049 344.065 352.028 349.278C353.816 351.959 353.816 355.534 351.879 358.066C349.645 362.535 345.028 365.513 340.113 365.513C333.708 365.365 327.601 362.981 322.984 358.662C319.707 355.683 317.026 351.959 315.388 347.789C314.047 343.32 310.473 340.043 306.004 338.852C304.515 338.554 303.174 337.511 302.578 336.022C300.642 330.808 297.365 326.34 295.578 321.127C294.833 319.19 294.089 317.105 293.493 315.02C292.897 312.19 290.663 309.956 287.982 309.36C283.513 308.317 279.045 307.572 274.428 307.423C257.299 306.083 240.468 301.912 224.829 295.061C212.616 289.847 202.487 280.464 196.381 268.548C190.572 257.972 183.273 248.291 174.784 239.652C167.038 231.013 158.251 223.267 148.569 216.714L145.739 214.926C143.803 213.735 141.42 213.139 139.037 213.437C128.759 214.628 118.631 215.969 108.354 216.714C106.567 216.863 105.077 216.714 103.439 216.863C100.013 217.16 96.7362 215.671 94.8 212.841C91.5232 208.968 89.7358 204.202 89.4379 199.138C89.289 196.159 88.8421 193.18 88.6932 190.201C88.5442 186.179 89.7358 182.009 92.119 178.732C95.6936 173.667 98.5236 168.305 100.46 162.496C101.651 159.666 101.205 159.219 98.2257 159.219C85.1185 159.368 72.0114 157.581 59.5 154.006C52.6485 152.219 46.2438 148.942 41.0307 144.324C38.9455 142.388 37.1582 140.005 36.1156 137.473C35.6687 136.728 35.2219 135.685 36.1156 134.941C36.8603 134.196 37.9029 134.792 38.6477 135.09C45.3502 138.813 52.7974 141.494 60.3936 142.686C73.3518 144.771 86.4591 143.878 98.9704 140.005C102.396 139.111 105.822 137.771 109.248 136.43C110.439 135.983 111.333 134.941 111.78 133.749C112.822 130.621 114.908 128.089 117.886 126.749C123.1 124.067 128.908 122.578 134.717 122.727C136.654 123.025 138.59 122.131 139.484 120.493C143.058 114.237 149.612 110.066 156.91 109.768C160.783 109.322 164.804 110.066 168.23 112.003C168.826 112.301 169.57 112.449 170.315 112.152C178.209 109.47 185.657 106.045 192.657 101.576C193.849 100.831 194.891 99.9378 195.934 98.8951C196.827 98.0014 196.827 96.363 195.934 95.4693C194.742 94.4266 193.551 93.384 192.359 92.6393C186.997 89.2134 181.486 86.3834 176.124 83.2555C172.103 80.7234 168.23 78.0423 164.357 75.3612C161.825 73.5738 161.825 71.9354 163.911 69.999H165.251L166.443 70.5948C179.55 76.9996 193.551 81.9149 207.849 84.8939C212.467 85.6387 216.786 87.7239 220.51 90.8519C224.68 94.1287 225.425 100.236 222.148 104.555C222.148 104.555 222.148 104.555 222.148 104.704C218.276 109.768 213.807 114.237 208.594 118.109C204.87 120.94 200.849 123.472 196.827 125.706C196.232 126.153 195.487 126.451 195.934 127.493C196.083 128.238 196.827 128.387 197.721 128.238C198.168 128.238 198.466 128.238 198.913 128.089C203.083 127.642 207.403 127.493 211.722 127.642C212.169 127.642 212.765 127.791 213.062 128.238C212.169 128.834 211.275 129.579 210.381 130.174C208.892 131.068 207.551 132.26 206.509 133.6C205.466 134.643 205.317 136.281 206.062 137.622C206.807 138.813 208.296 139.409 209.637 139.111C210.977 138.962 212.169 138.515 213.211 138.367C214.999 137.92 215.297 138.367 215.297 140.154C215.297 140.601 215.297 141.048 215.148 141.494C214.403 143.729 215.446 145.963 217.68 146.857C218.127 147.006 218.722 147.155 219.169 147.155C224.829 147.899 230.489 148.644 236.149 149.836C241.362 150.58 246.277 152.964 249.852 156.836C250.894 158.177 252.384 158.921 254.022 159.368C261.47 160.858 268.768 162.943 275.917 165.624C288.578 170.093 298.855 179.476 304.366 191.839C307.494 198.989 310.175 206.287 312.558 213.735C313.302 216.714 314.345 219.693 315.537 222.523C315.686 222.969 315.984 223.416 316.43 223.267C317.026 223.118 316.877 222.523 316.877 222.076C317.026 219.99 316.728 217.905 316.281 215.82C314.792 207.479 312.707 199.138 310.324 191.094C308.983 186.477 311.813 183.647 316.43 184.541C317.026 184.69 317.622 184.69 317.92 184.988C322.537 186.477 327.303 187.967 331.921 189.605C345.921 194.073 359.327 200.329 371.689 208.075C377.498 211.5 381.37 217.309 382.413 223.863C382.562 225.948 383.307 228.034 384.647 229.821C386.137 231.757 387.626 233.843 388.967 235.779C389.711 236.971 390.456 238.162 391.052 239.354C393.286 244.716 394.924 250.227 395.967 256.036C396.414 260.207 397.754 264.228 399.84 267.803C402.968 274.655 411.011 277.783 417.862 274.655C418.458 274.357 419.054 274.059 419.5 273.761C420.543 273.165 421.288 272.272 421.586 271.08C421.884 268.995 423.224 267.058 425.011 265.867C427.097 264.526 429.331 263.186 431.714 261.845C432.31 261.398 433.203 261.398 433.203 262.292C433.501 264.824 434.991 266.165 435.587 267.803Z" fill="#F36C22"/>
<path d="M334.154 402.454C333.409 402.901 332.665 403.05 331.92 403.348C330.58 404.092 329.239 404.837 327.75 403.199C327.303 402.603 326.409 402.603 325.813 403.05C325.515 403.348 325.218 403.794 325.367 404.39C325.664 406.178 324.473 407.816 322.686 408.263H318.068C312.11 407.518 311.366 402.901 311.366 398.581C311.068 393.666 309.727 388.751 307.493 384.282C306.302 381.75 304.961 379.367 303.62 376.984C302.131 374.601 301.088 372.068 300.195 369.387C298.854 365.813 296.471 362.685 293.343 360.599C290.513 358.812 288.279 356.28 287.088 353.152C284.556 347.045 279.491 342.428 273.385 340.193C266.682 337.959 260.129 335.129 253.873 331.554C245.83 326.639 239.127 320.085 234.212 312.042C233.02 310.255 231.978 308.765 230.786 307.276C230.191 306.531 229.893 305.786 229.297 305.041C229.446 304.446 229.893 304.595 230.042 304.892C241.064 308.616 252.532 311.297 264.001 313.085C270.257 314.276 276.363 315.17 282.768 315.766C285.449 316.064 287.683 317.702 288.875 319.936C292.152 326.043 295.875 332.001 300.195 337.512C303.025 340.491 304.812 344.215 305.408 348.237C306.153 352.407 307.94 356.131 310.77 359.259C313.898 363.578 317.621 367.6 321.643 371.026C325.367 374.303 328.494 378.175 330.877 382.644C333.112 387.261 335.495 391.879 337.431 396.645C337.878 399.773 337.133 401.113 334.154 402.454Z" fill="#F36C22"/>
</svg>
